Coordinates
version=1
nRows=43
nColumns=12
inDegrees=yes

Units are S.I. units (second, meters, Newtons, ...)
Angles are in degrees

endheader
time	SC_y	SC_z	SC_x	AC_y	AC_z	AC_x	GH_y	GH_z	GH_yy	EL_x	PS_y
       0.0              -46.17         0.7196           47.6          60.03          6.361          13.46          60.64          53.41          168.2          101.0          89.57
   0.03178              -46.17         0.7241           47.6          60.03          6.358          13.45          60.62          53.41          168.2          101.0          89.57
   0.06355              -46.17         0.7288          47.61          60.03          6.355          13.45           60.6          53.41          168.2          101.0          89.56
   0.09533              -46.17         0.7339          47.62          60.02          6.351          13.45          60.57          53.41          168.1          101.0          89.56
    0.1271              -46.17         0.7393          47.62          60.02          6.347          13.45          60.55          53.41          168.1          101.0          89.56
    0.1589              -46.17         0.7451          47.63          60.01          6.343          13.45          60.52           53.4          168.0          101.0          89.55
    0.1907              -46.17         0.7512          47.64          60.01          6.338          13.45           60.5           53.4          168.0          101.0          89.55
    0.2224              -46.17         0.7578          47.64           60.0          6.334          13.44          60.47           53.4          167.9          101.0          89.54
    0.2542              -46.17         0.7648          47.65           60.0          6.328          13.44          60.44           53.4          167.9          101.0          89.54
     0.286              -46.17         0.7724          47.66          59.99          6.323          13.44           60.4           53.4          167.8          101.0          89.53
    0.3178              -46.17         0.7805          47.67          59.99          6.317          13.44          60.36          53.39          167.8          100.9          89.52
    0.3495              -46.17         0.7892          47.68          59.98          6.311          13.44          60.33          53.39          167.7          100.9          89.52
    0.3813              -46.17         0.7987          47.69          59.97          6.304          13.43          60.28          53.39          167.6          100.9          89.51
    0.4131              -46.16         0.8088           47.7          59.97          6.297          13.43          60.24          53.38          167.5          100.9           89.5
    0.4449              -46.16         0.8198          47.71          59.96          6.289          13.43          60.19          53.38          167.4          100.9          89.49
    0.4766              -46.16         0.8318          47.73          59.95           6.28          13.42          60.13          53.38          167.3          100.9          89.49
    0.5084              -46.16         0.8447          47.74          59.94          6.271          13.42          60.08          53.37          167.2          100.9          89.48
    0.5402              -46.16         0.8588          47.76          59.93           6.26          13.42          60.01          53.37          167.1          100.9          89.47
     0.572              -46.16         0.8743          47.78          59.92          6.249          13.41          59.94          53.36          167.0          100.9          89.45
    0.6037              -46.16         0.8912          47.79           59.9          6.237          13.41          59.87          53.36          166.8          100.9          89.44
    0.6355              -46.16         0.9097          47.82          59.89          6.224           13.4          59.78          53.35          166.7          100.9          89.43
    0.6673              -46.15         0.9301          47.84          59.88          6.209           13.4          59.69          53.35          166.5          100.8          89.41
    0.6991              -46.15         0.9527          47.86          59.86          6.192          13.39          59.59          53.34          166.3          100.8          89.39
    0.7308              -46.15         0.9776          47.89          59.84          6.174          13.38          59.48          53.33          166.1          100.8          89.38
    0.7626              -46.15          1.005          47.92          59.82          6.154          13.38          59.35          53.33          165.9          100.8          89.35
    0.7944              -46.15          1.036          47.96           59.8          6.132          13.37          59.21          53.32          165.7          100.8          89.33
    0.8262              -46.14          1.071           48.0          59.77          6.107          13.36          59.05          53.31          165.4          100.7           89.3
    0.8579              -46.14           1.11          48.04          59.74          6.078          13.35          58.88          53.29          165.1          100.7          89.27
    0.8897              -46.14          1.154          48.09          59.71          6.046          13.33          58.68          53.28          164.7          100.7          89.24
    0.9215              -46.13          1.204          48.15          59.67           6.01          13.32          58.45          53.27          164.3          100.6           89.2
    0.9533              -46.13          1.262          48.22          59.63          5.969           13.3           58.2          53.25          163.8          100.6          89.16
     0.985              -46.12          1.327          48.29          59.58          5.921          13.29           57.9          53.23          163.3          100.5          89.11
     1.017              -46.12          1.403          48.38          59.52          5.866          13.27          57.56          53.21          162.7          100.5          89.05
     1.049              -46.11          1.491          48.48          59.45          5.803          13.24          57.16          53.18          161.9          100.4          88.99
      1.08               -46.1          1.594          48.59          59.38          5.728          13.21           56.7          53.15          161.1          100.4          88.91
     1.112              -46.09          1.715          48.73          59.28           5.64          13.18          56.15          53.11          160.1          100.3          88.82
     1.144              -46.08           1.86           48.9          59.18          5.536          13.14           55.5          53.07          158.9          100.2          88.71
     1.176              -46.06          2.033          49.09          59.05           5.41          13.09          54.72          53.02          157.5          100.0          88.58
     1.207              -46.05          2.242          49.33          58.89          5.259          13.03          53.78          52.95          155.8          99.88          88.42
     1.239              -46.03          2.497          49.62           58.7          5.074          12.96          52.63          52.88          153.7          99.69          88.22
     1.271               -46.0          2.813          49.98          58.46          4.845          12.87          51.21          52.78          151.1          99.46          87.98
     1.303              -45.97          3.206          50.43          58.16           4.56          12.76          49.43          52.66          147.9          99.17          87.69
     1.335              -45.93          3.702          50.99          57.79          4.201          12.62           47.2          52.51          143.9          98.81          87.31
